<svg width="256" height="256" viewBox="0 0 256 256" fill="none" xmlns="http://www.w3.org/2000/svg">
<path d="M0 20C0 8.95431 8.95431 0 20 0H236C247.046 0 256 8.95431 256 20V236C256 247.046 247.046 256 236 256H20C8.95431 256 0 247.046 0 236V20Z" fill="#00B6F0"/>
<path d="M195.963 59.8258C181.764 45.6263 162.505 37.6491 142.424 37.6491C122.343 37.6491 103.084 45.6263 88.8844 59.8258C74.6849 74.0254 66.7077 93.2841 66.7077 113.365C66.7077 133.446 74.6849 152.705 88.8844 166.905L121.008 134.781C115.328 129.101 112.137 121.398 112.137 113.365C112.137 105.333 115.328 97.6293 121.008 91.9495C126.688 86.2697 134.391 83.0788 142.424 83.0788C150.456 83.0788 158.16 86.2697 163.84 91.9495L195.963 59.8258Z" fill="white"/>
<path d="M59.5395 195.677C73.739 209.876 92.9977 217.854 113.079 217.854C133.16 217.854 152.419 209.876 166.618 195.677C180.818 181.477 188.795 162.219 188.795 142.137C188.795 122.056 180.818 102.798 166.618 88.5981L134.495 120.722C140.174 126.402 143.365 134.105 143.365 142.137C143.365 150.17 140.174 157.873 134.495 163.553C128.815 169.233 121.111 172.424 113.079 172.424C105.046 172.424 97.343 169.233 91.6631 163.553L59.5395 195.677Z" fill="white"/>
</svg>
