<svg width="1826" height="556" viewBox="0 0 1826 556" fill="none" xmlns="http://www.w3.org/2000/svg">
<path d="M376.333 143.633C348.202 115.503 310.049 99.6994 270.267 99.6994C230.484 99.6994 192.331 115.503 164.201 143.633C136.07 171.764 120.267 209.917 120.267 249.699C120.267 289.482 136.07 327.635 164.201 355.765L227.84 292.126C216.588 280.874 210.267 265.612 210.267 249.699C210.267 233.786 216.588 218.525 227.84 207.273C239.093 196.021 254.354 189.699 270.267 189.699C286.18 189.699 301.441 196.021 312.693 207.273L376.333 143.633Z" fill="#00B6F0"/>
<path d="M106.066 412.765C134.196 440.896 172.35 456.699 212.132 456.699C251.914 456.699 290.068 440.896 318.198 412.765C346.328 384.635 362.132 346.482 362.132 306.699C362.132 266.917 346.328 228.764 318.198 200.633L254.558 264.273C265.811 275.525 272.132 290.786 272.132 306.699C272.132 322.612 265.811 337.874 254.558 349.126C243.306 360.378 228.045 366.699 212.132 366.699C196.219 366.699 180.958 360.378 169.706 349.126L106.066 412.765Z" fill="#00B6F0"/>
<path d="M536 359C517.333 359 502 353.083 490 341.25C478 329.417 472 314.167 472 295.5C472 277 478 261.833 490 250C502 238.167 517.333 232.25 536 232.25C557.333 232.25 573.25 239.5 583.75 254L563 273.5C557.167 264.833 548.667 260.5 537.5 260.5C527.833 260.5 519.917 263.75 513.75 270.25C507.75 276.583 504.75 285 504.75 295.5C504.75 306 507.75 314.5 513.75 321C519.917 327.5 527.833 330.75 537.5 330.75C548.333 330.75 556.833 326.417 563 317.75L583.75 337C573.25 351.667 557.333 359 536 359ZM636.256 356H604.506V235.25H636.256V251.75C640.756 246.083 646.506 241.417 653.506 237.75C660.506 234.083 667.589 232.25 674.756 232.25V263.25C672.589 262.75 669.673 262.5 666.006 262.5C660.673 262.5 655.006 263.833 649.006 266.5C643.006 269.167 638.756 272.417 636.256 276.25V356ZM710.344 222.25C705.177 222.25 700.677 220.417 696.844 216.75C693.177 212.917 691.344 208.417 691.344 203.25C691.344 198.083 693.177 193.667 696.844 190C700.677 186.333 705.177 184.5 710.344 184.5C715.677 184.5 720.177 186.333 723.844 190C727.51 193.667 729.344 198.083 729.344 203.25C729.344 208.417 727.51 212.917 723.844 216.75C720.177 220.417 715.677 222.25 710.344 222.25ZM726.344 356H694.594V235.25H726.344V356ZM814.076 359C795.41 359 780.076 353.083 768.076 341.25C756.076 329.417 750.076 314.167 750.076 295.5C750.076 277 756.076 261.833 768.076 250C780.076 238.167 795.41 232.25 814.076 232.25C835.41 232.25 851.326 239.5 861.826 254L841.076 273.5C835.243 264.833 826.743 260.5 815.576 260.5C805.91 260.5 797.993 263.75 791.826 270.25C785.826 276.583 782.826 285 782.826 295.5C782.826 306 785.826 314.5 791.826 321C797.993 327.5 805.91 330.75 815.576 330.75C826.41 330.75 834.91 326.417 841.076 317.75L861.826 337C851.326 351.667 835.41 359 814.076 359ZM1000.58 356H960.832L928.832 309.5L914.332 325V356H882.582V189.25H914.332V289L960.082 235.25H999.082L951.332 290L1000.58 356ZM1071.66 359C1052.99 359 1037.57 353.167 1025.41 341.5C1013.24 329.833 1007.16 314.5 1007.16 295.5C1007.16 277.667 1012.99 262.667 1024.66 250.5C1036.49 238.333 1051.49 232.25 1069.66 232.25C1087.66 232.25 1102.24 238.417 1113.41 250.75C1124.57 262.917 1130.16 278.917 1130.16 298.75V305.75H1040.41C1041.41 313.75 1044.99 320.417 1051.16 325.75C1057.32 331.083 1065.32 333.75 1075.16 333.75C1080.49 333.75 1086.24 332.667 1092.41 330.5C1098.74 328.333 1103.74 325.417 1107.41 321.75L1121.41 342.25C1109.24 353.417 1092.66 359 1071.66 359ZM1099.41 284.25C1098.91 277.417 1096.16 271.25 1091.16 265.75C1086.32 260.25 1079.16 257.5 1069.66 257.5C1060.66 257.5 1053.66 260.25 1048.66 265.75C1043.66 271.083 1040.74 277.25 1039.91 284.25H1099.41ZM1193.59 359C1182.42 359 1173.92 356.167 1168.09 350.5C1162.26 344.833 1159.34 336.667 1159.34 326V263H1139.34V235.25H1159.34V202.25H1191.34V235.25H1215.84V263H1191.34V317.5C1191.34 321.333 1192.34 324.5 1194.34 327C1196.34 329.5 1199.01 330.75 1202.34 330.75C1207.34 330.75 1211.01 329.583 1213.34 327.25L1220.09 351.25C1214.26 356.417 1205.42 359 1193.59 359ZM1281.06 359C1270.56 359 1260.48 357.333 1250.81 354C1241.31 350.667 1233.4 346.083 1227.06 340.25L1240.81 318C1245.48 322.333 1251.81 326.167 1259.81 329.5C1267.81 332.833 1275.4 334.5 1282.56 334.5C1289.23 334.5 1294.23 333.333 1297.56 331C1301.06 328.667 1302.81 325.5 1302.81 321.5C1302.81 318.5 1300.98 316.083 1297.31 314.25C1293.81 312.25 1289.4 310.833 1284.06 310C1278.9 309.167 1273.15 307.917 1266.81 306.25C1260.65 304.583 1254.9 302.583 1249.56 300.25C1244.4 297.917 1239.98 294.25 1236.31 289.25C1232.81 284.083 1231.06 277.75 1231.06 270.25C1231.06 259.583 1235.48 250.583 1244.31 243.25C1253.15 235.917 1265.23 232.25 1280.56 232.25C1299.23 232.25 1315.48 237.75 1329.31 248.75L1316.56 270.5C1312.73 266.5 1307.56 263.167 1301.06 260.5C1294.73 257.833 1287.98 256.5 1280.81 256.5C1275.15 256.5 1270.56 257.667 1267.06 260C1263.56 262.167 1261.81 265 1261.81 268.5C1261.81 271.167 1263.56 273.417 1267.06 275.25C1270.56 276.917 1274.98 278.167 1280.31 279C1285.65 279.833 1291.4 281.167 1297.56 283C1303.73 284.667 1309.48 286.75 1314.81 289.25C1320.15 291.583 1324.56 295.417 1328.06 300.75C1331.56 306.083 1333.31 312.583 1333.31 320.25C1333.31 331.583 1328.65 340.917 1319.31 348.25C1310.15 355.417 1297.4 359 1281.06 359ZM1496.45 356H1462.7L1437.2 273.75L1411.7 356H1377.7L1340.95 235.25H1373.95L1396.45 316.5L1422.95 235.25H1451.2L1477.7 316.5L1500.2 235.25H1533.2L1496.45 356ZM1653.09 356H1621.34V343.5C1612.68 353.833 1599.93 359 1583.09 359C1572.26 359 1562.51 355.5 1553.84 348.5C1545.34 341.333 1541.09 331.5 1541.09 319C1541.09 306 1545.26 296.25 1553.59 289.75C1562.09 283.25 1571.93 280 1583.09 280C1600.26 280 1613.01 284.917 1621.34 294.75V278.5C1621.34 272.333 1618.93 267.417 1614.09 263.75C1609.26 260.083 1602.84 258.25 1594.84 258.25C1581.68 258.25 1569.93 263 1559.59 272.5L1547.59 251.25C1561.93 238.583 1579.51 232.25 1600.34 232.25C1615.84 232.25 1628.51 235.833 1638.34 243C1648.18 250.167 1653.09 261.833 1653.09 278V356ZM1595.84 337.5C1607.68 337.5 1616.18 334 1621.34 327V312C1616.18 305 1607.68 301.5 1595.84 301.5C1589.34 301.5 1583.93 303.167 1579.59 306.5C1575.26 309.667 1573.09 314.083 1573.09 319.75C1573.09 325.25 1575.26 329.583 1579.59 332.75C1583.93 335.917 1589.34 337.5 1595.84 337.5ZM1753.58 359C1738.42 359 1726 352.833 1716.33 340.5V402H1684.58V235.25H1716.33V250.5C1725.83 238.333 1738.25 232.25 1753.58 232.25C1769.42 232.25 1782.25 237.917 1792.08 249.25C1802.08 260.417 1807.08 275.833 1807.08 295.5C1807.08 315.167 1802.08 330.667 1792.08 342C1782.25 353.333 1769.42 359 1753.58 359ZM1743.58 330.75C1752.75 330.75 1760.08 327.5 1765.58 321C1771.25 314.5 1774.08 306 1774.08 295.5C1774.08 285.167 1771.25 276.75 1765.58 270.25C1760.08 263.75 1752.75 260.5 1743.58 260.5C1738.42 260.5 1733.25 261.833 1728.08 264.5C1722.92 267.167 1719 270.417 1716.33 274.25V317C1719 320.833 1722.92 324.083 1728.08 326.75C1733.42 329.417 1738.58 330.75 1743.58 330.75Z" fill="white"/>
</svg>
